solid Default
  facet normal 0.000000e+00 0.000000e+00 -1.000000e+00
    outer loop
      vertex 1.800000e+01 3.600000e+01 0.000000e+00
      vertex -1.800000e+01 -3.600000e+01 0.000000e+00
      vertex -1.800000e+01 3.600000e+01 0.000000e+00
    endloop
  endfacet
  facet normal 0.000000e+00 0.000000e+00 -1.000000e+00
    outer loop
      vertex -1.800000e+01 -3.600000e+01 0.000000e+00
      vertex 1.800000e+01 3.600000e+01 0.000000e+00
      vertex 1.800000e+01 -3.600000e+01 0.000000e+00
    endloop
  endfacet
  facet normal 0.000000e+00 0.000000e+00 1.000000e+00
    outer loop
      vertex -1.500000e+01 3.000000e+01 6.000000e+01
      vertex 1.800000e+01 3.600000e+01 6.000000e+01
      vertex -1.800000e+01 3.600000e+01 6.000000e+01
    endloop
  endfacet
  facet normal 0.000000e+00 0.000000e+00 1.000000e+00
    outer loop
      vertex 1.800000e+01 3.600000e+01 6.000000e+01
      vertex -1.500000e+01 3.000000e+01 6.000000e+01
      vertex 1.500000e+01 3.000000e+01 6.000000e+01
    endloop
  endfacet
  facet normal -1.000000e+00 0.000000e+00 0.000000e+00
    outer loop
      vertex -1.800000e+01 3.600000e+01 6.000000e+01
      vertex -1.800000e+01 -3.600000e+01 0.000000e+00
      vertex -1.800000e+01 -3.600000e+01 6.000000e+01
    endloop
  endfacet
  facet normal -1.000000e+00 0.000000e+00 0.000000e+00
    outer loop
      vertex -1.800000e+01 -3.600000e+01 0.000000e+00
      vertex -1.800000e+01 3.600000e+01 6.000000e+01
      vertex -1.800000e+01 3.600000e+01 0.000000e+00
    endloop
  endfacet
  facet normal 0.000000e+00 1.000000e+00 0.000000e+00
    outer loop
      vertex -1.800000e+01 3.600000e+01 6.000000e+01
      vertex 1.800000e+01 3.600000e+01 0.000000e+00
      vertex -1.800000e+01 3.600000e+01 0.000000e+00
    endloop
  endfacet
  facet normal 0.000000e+00 1.000000e+00 0.000000e+00
    outer loop
      vertex 1.800000e+01 3.600000e+01 0.000000e+00
      vertex -1.800000e+01 3.600000e+01 6.000000e+01
      vertex 1.800000e+01 3.600000e+01 6.000000e+01
    endloop
  endfacet
  facet normal 1.000000e+00 0.000000e+00 0.000000e+00
    outer loop
      vertex 1.800000e+01 3.600000e+01 0.000000e+00
      vertex 1.800000e+01 -3.600000e+01 6.000000e+01
      vertex 1.800000e+01 -3.600000e+01 0.000000e+00
    endloop
  endfacet
  facet normal 1.000000e+00 0.000000e+00 0.000000e+00
    outer loop
      vertex 1.800000e+01 -3.600000e+01 6.000000e+01
      vertex 1.800000e+01 3.600000e+01 0.000000e+00
      vertex 1.800000e+01 3.600000e+01 6.000000e+01
    endloop
  endfacet
  facet normal -0.000000e+00 -1.000000e+00 -0.000000e+00
    outer loop
      vertex 1.800000e+01 -3.600000e+01 6.000000e+01
      vertex -1.800000e+01 -3.600000e+01 0.000000e+00
      vertex 1.800000e+01 -3.600000e+01 0.000000e+00
    endloop
  endfacet
  facet normal -0.000000e+00 -1.000000e+00 -0.000000e+00
    outer loop
      vertex -1.800000e+01 -3.600000e+01 0.000000e+00
      vertex 1.800000e+01 -3.600000e+01 6.000000e+01
      vertex -1.800000e+01 -3.600000e+01 6.000000e+01
    endloop
  endfacet
  facet normal 0.000000e+00 0.000000e+00 1.000000e+00
    outer loop
      vertex 1.800000e+01 -3.600000e+01 6.000000e+01
      vertex -1.500000e+01 -3.000000e+01 6.000000e+01
      vertex -1.800000e+01 -3.600000e+01 6.000000e+01
    endloop
  endfacet
  facet normal 0.000000e+00 0.000000e+00 1.000000e+00
    outer loop
      vertex -1.500000e+01 -3.000000e+01 6.000000e+01
      vertex 1.800000e+01 -3.600000e+01 6.000000e+01
      vertex 1.500000e+01 -3.000000e+01 6.000000e+01
    endloop
  endfacet
  facet normal 0.000000e+00 0.000000e+00 1.000000e+00
    outer loop
      vertex 1.800000e+01 -3.600000e+01 6.000000e+01
      vertex 1.500000e+01 3.000000e+01 6.000000e+01
      vertex 1.500000e+01 -3.000000e+01 6.000000e+01
    endloop
  endfacet
  facet normal 0.000000e+00 0.000000e+00 1.000000e+00
    outer loop
      vertex 1.500000e+01 3.000000e+01 6.000000e+01
      vertex 1.800000e+01 -3.600000e+01 6.000000e+01
      vertex 1.800000e+01 3.600000e+01 6.000000e+01
    endloop
  endfacet
  facet normal 0.000000e+00 0.000000e+00 1.000000e+00
    outer loop
      vertex -1.500000e+01 -3.000000e+01 6.000000e+01
      vertex -1.800000e+01 3.600000e+01 6.000000e+01
      vertex -1.800000e+01 -3.600000e+01 6.000000e+01
    endloop
  endfacet
  facet normal 0.000000e+00 0.000000e+00 1.000000e+00
    outer loop
      vertex -1.800000e+01 3.600000e+01 6.000000e+01
      vertex -1.500000e+01 -3.000000e+01 6.000000e+01
      vertex -1.500000e+01 3.000000e+01 6.000000e+01
    endloop
  endfacet
  facet normal 0.000000e+00 0.000000e+00 1.000000e+00
    outer loop
      vertex 1.200000e+01 -2.400000e+01 6.000000e+00
      vertex -1.200000e+01 2.400000e+01 6.000000e+00
      vertex -1.200000e+01 -2.400000e+01 6.000000e+00
    endloop
  endfacet
  facet normal 0.000000e+00 0.000000e+00 1.000000e+00
    outer loop
      vertex -1.200000e+01 2.400000e+01 6.000000e+00
      vertex 1.200000e+01 -2.400000e+01 6.000000e+00
      vertex 1.200000e+01 2.400000e+01 6.000000e+00
    endloop
  endfacet
  facet normal 1.000000e+00 0.000000e+00 0.000000e+00
    outer loop
      vertex -1.200000e+01 2.400000e+01 6.000000e+00
      vertex -1.200000e+01 -2.400000e+01 7.200000e+01
      vertex -1.200000e+01 -2.400000e+01 6.000000e+00
    endloop
  endfacet
  facet normal 1.000000e+00 0.000000e+00 0.000000e+00
    outer loop
      vertex -1.200000e+01 -2.400000e+01 7.200000e+01
      vertex -1.200000e+01 2.400000e+01 6.000000e+00
      vertex -1.200000e+01 2.400000e+01 7.200000e+01
    endloop
  endfacet
  facet normal -1.184238e-15 1.000000e+00 0.000000e+00
    outer loop
      vertex -1.200000e+01 -2.400000e+01 7.200000e+01
      vertex 1.200000e+01 -2.400000e+01 6.000000e+00
      vertex -1.200000e+01 -2.400000e+01 6.000000e+00
    endloop
  endfacet
  facet normal -1.184238e-15 1.000000e+00 0.000000e+00
    outer loop
      vertex 1.200000e+01 -2.400000e+01 6.000000e+00
      vertex -1.200000e+01 -2.400000e+01 7.200000e+01
      vertex 1.200000e+01 -2.400000e+01 7.200000e+01
    endloop
  endfacet
  facet normal -1.000000e+00 0.000000e+00 0.000000e+00
    outer loop
      vertex 1.200000e+01 2.400000e+01 7.200000e+01
      vertex 1.200000e+01 -2.400000e+01 6.000000e+00
      vertex 1.200000e+01 -2.400000e+01 7.200000e+01
    endloop
  endfacet
  facet normal -1.000000e+00 0.000000e+00 0.000000e+00
    outer loop
      vertex 1.200000e+01 -2.400000e+01 6.000000e+00
      vertex 1.200000e+01 2.400000e+01 7.200000e+01
      vertex 1.200000e+01 2.400000e+01 6.000000e+00
    endloop
  endfacet
  facet normal -8.881784e-16 -1.000000e+00 0.000000e+00
    outer loop
      vertex 1.200000e+01 2.400000e+01 7.200000e+01
      vertex -1.200000e+01 2.400000e+01 6.000000e+00
      vertex 1.200000e+01 2.400000e+01 6.000000e+00
    endloop
  endfacet
  facet normal -8.881784e-16 -1.000000e+00 0.000000e+00
    outer loop
      vertex -1.200000e+01 2.400000e+01 6.000000e+00
      vertex 1.200000e+01 2.400000e+01 7.200000e+01
      vertex -1.200000e+01 2.400000e+01 7.200000e+01
    endloop
  endfacet
  facet normal 0.000000e+00 0.000000e+00 1.000000e+00
    outer loop
      vertex -1.200000e+01 2.400000e+01 7.200000e+01
      vertex 1.500000e+01 3.000000e+01 7.200000e+01
      vertex -1.500000e+01 3.000000e+01 7.200000e+01
    endloop
  endfacet
  facet normal 0.000000e+00 0.000000e+00 1.000000e+00
    outer loop
      vertex 1.500000e+01 3.000000e+01 7.200000e+01
      vertex -1.200000e+01 2.400000e+01 7.200000e+01
      vertex 1.200000e+01 2.400000e+01 7.200000e+01
    endloop
  endfacet
  facet normal 3.552714e-16 1.000000e+00 0.000000e+00
    outer loop
      vertex -1.500000e+01 3.000000e+01 7.200000e+01
      vertex 1.500000e+01 3.000000e+01 6.000000e+01
      vertex -1.500000e+01 3.000000e+01 6.000000e+01
    endloop
  endfacet
  facet normal 3.552714e-16 1.000000e+00 0.000000e+00
    outer loop
      vertex 1.500000e+01 3.000000e+01 6.000000e+01
      vertex -1.500000e+01 3.000000e+01 7.200000e+01
      vertex 1.500000e+01 3.000000e+01 7.200000e+01
    endloop
  endfacet
  facet normal 0.000000e+00 0.000000e+00 1.000000e+00
    outer loop
      vertex -1.200000e+01 -2.400000e+01 7.200000e+01
      vertex -1.500000e+01 3.000000e+01 7.200000e+01
      vertex -1.500000e+01 -3.000000e+01 7.200000e+01
    endloop
  endfacet
  facet normal 0.000000e+00 0.000000e+00 1.000000e+00
    outer loop
      vertex -1.500000e+01 3.000000e+01 7.200000e+01
      vertex -1.200000e+01 -2.400000e+01 7.200000e+01
      vertex -1.200000e+01 2.400000e+01 7.200000e+01
    endloop
  endfacet
  facet normal -1.000000e+00 0.000000e+00 0.000000e+00
    outer loop
      vertex -1.500000e+01 3.000000e+01 7.200000e+01
      vertex -1.500000e+01 -3.000000e+01 6.000000e+01
      vertex -1.500000e+01 -3.000000e+01 7.200000e+01
    endloop
  endfacet
  facet normal -1.000000e+00 0.000000e+00 0.000000e+00
    outer loop
      vertex -1.500000e+01 -3.000000e+01 6.000000e+01
      vertex -1.500000e+01 3.000000e+01 7.200000e+01
      vertex -1.500000e+01 3.000000e+01 6.000000e+01
    endloop
  endfacet
  facet normal 0.000000e+00 0.000000e+00 1.000000e+00
    outer loop
      vertex 1.500000e+01 -3.000000e+01 7.200000e+01
      vertex 1.200000e+01 2.400000e+01 7.200000e+01
      vertex 1.200000e+01 -2.400000e+01 7.200000e+01
    endloop
  endfacet
  facet normal 0.000000e+00 0.000000e+00 1.000000e+00
    outer loop
      vertex 1.200000e+01 2.400000e+01 7.200000e+01
      vertex 1.500000e+01 -3.000000e+01 7.200000e+01
      vertex 1.500000e+01 3.000000e+01 7.200000e+01
    endloop
  endfacet
  facet normal 1.000000e+00 0.000000e+00 0.000000e+00
    outer loop
      vertex 1.500000e+01 3.000000e+01 6.000000e+01
      vertex 1.500000e+01 -3.000000e+01 7.200000e+01
      vertex 1.500000e+01 -3.000000e+01 6.000000e+01
    endloop
  endfacet
  facet normal 1.000000e+00 0.000000e+00 0.000000e+00
    outer loop
      vertex 1.500000e+01 -3.000000e+01 7.200000e+01
      vertex 1.500000e+01 3.000000e+01 6.000000e+01
      vertex 1.500000e+01 3.000000e+01 7.200000e+01
    endloop
  endfacet
  facet normal 0.000000e+00 0.000000e+00 1.000000e+00
    outer loop
      vertex 1.500000e+01 -3.000000e+01 7.200000e+01
      vertex -1.200000e+01 -2.400000e+01 7.200000e+01
      vertex -1.500000e+01 -3.000000e+01 7.200000e+01
    endloop
  endfacet
  facet normal 0.000000e+00 0.000000e+00 1.000000e+00
    outer loop
      vertex -1.200000e+01 -2.400000e+01 7.200000e+01
      vertex 1.500000e+01 -3.000000e+01 7.200000e+01
      vertex 1.200000e+01 -2.400000e+01 7.200000e+01
    endloop
  endfacet
  facet normal 0.000000e+00 -1.000000e+00 0.000000e+00
    outer loop
      vertex 1.500000e+01 -3.000000e+01 7.200000e+01
      vertex -1.500000e+01 -3.000000e+01 6.000000e+01
      vertex 1.500000e+01 -3.000000e+01 6.000000e+01
    endloop
  endfacet
  facet normal 0.000000e+00 -1.000000e+00 0.000000e+00
    outer loop
      vertex -1.500000e+01 -3.000000e+01 6.000000e+01
      vertex 1.500000e+01 -3.000000e+01 7.200000e+01
      vertex -1.500000e+01 -3.000000e+01 7.200000e+01
    endloop
  endfacet
endsolid Default
