solid Default
  facet normal 0.000000e+00 0.000000e+00 -1.000000e+00
    outer loop
      vertex 1.800000e+01 3.600000e+01 0.000000e+00
      vertex -1.800000e+01 -3.600000e+01 0.000000e+00
      vertex -1.800000e+01 3.600000e+01 0.000000e+00
    endloop
  endfacet
  facet normal 0.000000e+00 0.000000e+00 -1.000000e+00
    outer loop
      vertex -1.800000e+01 -3.600000e+01 0.000000e+00
      vertex 1.800000e+01 3.600000e+01 0.000000e+00
      vertex 1.800000e+01 -3.600000e+01 0.000000e+00
    endloop
  endfacet
  facet normal 0.000000e+00 0.000000e+00 1.000000e+00
    outer loop
      vertex -1.510000e+01 3.020000e+01 2.400000e+01
      vertex 1.800000e+01 3.600000e+01 2.400000e+01
      vertex -1.800000e+01 3.600000e+01 2.400000e+01
    endloop
  endfacet
  facet normal 0.000000e+00 0.000000e+00 1.000000e+00
    outer loop
      vertex 1.800000e+01 3.600000e+01 2.400000e+01
      vertex -1.510000e+01 3.020000e+01 2.400000e+01
      vertex 1.510000e+01 3.020000e+01 2.400000e+01
    endloop
  endfacet
  facet normal -0.000000e+00 -1.000000e+00 -0.000000e+00
    outer loop
      vertex 1.800000e+01 -3.600000e+01 2.400000e+01
      vertex -1.800000e+01 -3.600000e+01 0.000000e+00
      vertex 1.800000e+01 -3.600000e+01 0.000000e+00
    endloop
  endfacet
  facet normal -0.000000e+00 -1.000000e+00 -0.000000e+00
    outer loop
      vertex -1.800000e+01 -3.600000e+01 0.000000e+00
      vertex 1.800000e+01 -3.600000e+01 2.400000e+01
      vertex -1.800000e+01 -3.600000e+01 2.400000e+01
    endloop
  endfacet
  facet normal -1.000000e+00 0.000000e+00 0.000000e+00
    outer loop
      vertex -1.800000e+01 3.600000e+01 2.400000e+01
      vertex -1.800000e+01 -3.600000e+01 0.000000e+00
      vertex -1.800000e+01 -3.600000e+01 2.400000e+01
    endloop
  endfacet
  facet normal -1.000000e+00 0.000000e+00 0.000000e+00
    outer loop
      vertex -1.800000e+01 -3.600000e+01 0.000000e+00
      vertex -1.800000e+01 3.600000e+01 2.400000e+01
      vertex -1.800000e+01 3.600000e+01 0.000000e+00
    endloop
  endfacet
  facet normal 0.000000e+00 1.000000e+00 0.000000e+00
    outer loop
      vertex -1.800000e+01 3.600000e+01 2.400000e+01
      vertex 1.800000e+01 3.600000e+01 0.000000e+00
      vertex -1.800000e+01 3.600000e+01 0.000000e+00
    endloop
  endfacet
  facet normal 0.000000e+00 1.000000e+00 0.000000e+00
    outer loop
      vertex 1.800000e+01 3.600000e+01 0.000000e+00
      vertex -1.800000e+01 3.600000e+01 2.400000e+01
      vertex 1.800000e+01 3.600000e+01 2.400000e+01
    endloop
  endfacet
  facet normal 1.000000e+00 0.000000e+00 0.000000e+00
    outer loop
      vertex 1.800000e+01 3.600000e+01 0.000000e+00
      vertex 1.800000e+01 -3.600000e+01 2.400000e+01
      vertex 1.800000e+01 -3.600000e+01 0.000000e+00
    endloop
  endfacet
  facet normal 1.000000e+00 0.000000e+00 0.000000e+00
    outer loop
      vertex 1.800000e+01 -3.600000e+01 2.400000e+01
      vertex 1.800000e+01 3.600000e+01 0.000000e+00
      vertex 1.800000e+01 3.600000e+01 2.400000e+01
    endloop
  endfacet
  facet normal 0.000000e+00 0.000000e+00 1.000000e+00
    outer loop
      vertex 1.800000e+01 -3.600000e+01 2.400000e+01
      vertex 1.520000e+01 -3.020000e+01 2.400000e+01
      vertex 1.510000e+01 -3.020000e+01 2.400000e+01
    endloop
  endfacet
  facet normal 0.000000e+00 0.000000e+00 1.000000e+00
    outer loop
      vertex 1.520000e+01 -3.020000e+01 2.400000e+01
      vertex 1.800000e+01 -3.600000e+01 2.400000e+01
      vertex 1.520000e+01 3.020000e+01 2.400000e+01
    endloop
  endfacet
  facet normal 0.000000e+00 0.000000e+00 1.000000e+00
    outer loop
      vertex 1.520000e+01 3.020000e+01 2.400000e+01
      vertex 1.800000e+01 3.600000e+01 2.400000e+01
      vertex 1.510000e+01 3.020000e+01 2.400000e+01
    endloop
  endfacet
  facet normal 0.000000e+00 0.000000e+00 1.000000e+00
    outer loop
      vertex 1.800000e+01 3.600000e+01 2.400000e+01
      vertex 1.520000e+01 3.020000e+01 2.400000e+01
      vertex 1.800000e+01 -3.600000e+01 2.400000e+01
    endloop
  endfacet
  facet normal 0.000000e+00 0.000000e+00 1.000000e+00
    outer loop
      vertex -1.800000e+01 -3.600000e+01 2.400000e+01
      vertex -1.520000e+01 -3.020000e+01 2.400000e+01
      vertex -1.800000e+01 3.600000e+01 2.400000e+01
    endloop
  endfacet
  facet normal 0.000000e+00 0.000000e+00 1.000000e+00
    outer loop
      vertex -1.520000e+01 -3.020000e+01 2.400000e+01
      vertex -1.800000e+01 -3.600000e+01 2.400000e+01
      vertex -1.510000e+01 -3.020000e+01 2.400000e+01
    endloop
  endfacet
  facet normal 0.000000e+00 0.000000e+00 1.000000e+00
    outer loop
      vertex -1.800000e+01 3.600000e+01 2.400000e+01
      vertex -1.520000e+01 3.020000e+01 2.400000e+01
      vertex -1.510000e+01 3.020000e+01 2.400000e+01
    endloop
  endfacet
  facet normal 0.000000e+00 0.000000e+00 1.000000e+00
    outer loop
      vertex -1.520000e+01 3.020000e+01 2.400000e+01
      vertex -1.800000e+01 3.600000e+01 2.400000e+01
      vertex -1.520000e+01 -3.020000e+01 2.400000e+01
    endloop
  endfacet
  facet normal 0.000000e+00 0.000000e+00 1.000000e+00
    outer loop
      vertex 1.800000e+01 -3.600000e+01 2.400000e+01
      vertex -1.510000e+01 -3.020000e+01 2.400000e+01
      vertex -1.800000e+01 -3.600000e+01 2.400000e+01
    endloop
  endfacet
  facet normal 0.000000e+00 0.000000e+00 1.000000e+00
    outer loop
      vertex -1.510000e+01 -3.020000e+01 2.400000e+01
      vertex 1.800000e+01 -3.600000e+01 2.400000e+01
      vertex 1.510000e+01 -3.020000e+01 2.400000e+01
    endloop
  endfacet
  facet normal 0.000000e+00 0.000000e+00 1.000000e+00
    outer loop
      vertex -1.510000e+01 -3.020000e+01 6.000000e+00
      vertex -1.520000e+01 3.020000e+01 6.000000e+00
      vertex -1.520000e+01 -3.020000e+01 6.000000e+00
    endloop
  endfacet
  facet normal 0.000000e+00 0.000000e+00 1.000000e+00
    outer loop
      vertex -1.520000e+01 3.020000e+01 6.000000e+00
      vertex -1.510000e+01 -3.020000e+01 6.000000e+00
      vertex -1.510000e+01 3.020000e+01 6.000000e+00
    endloop
  endfacet
  facet normal 0.000000e+00 0.000000e+00 1.000000e+00
    outer loop
      vertex -1.510000e+01 3.020000e+01 6.000000e+00
      vertex -1.510000e+01 -3.020000e+01 6.000000e+00
      vertex 1.510000e+01 -3.020000e+01 6.000000e+00
    endloop
  endfacet
  facet normal 0.000000e+00 0.000000e+00 1.000000e+00
    outer loop
      vertex -1.510000e+01 3.020000e+01 6.000000e+00
      vertex 1.510000e+01 -3.020000e+01 6.000000e+00
      vertex 1.510000e+01 3.020000e+01 6.000000e+00
    endloop
  endfacet
  facet normal 0.000000e+00 0.000000e+00 1.000000e+00
    outer loop
      vertex 1.510000e+01 3.020000e+01 6.000000e+00
      vertex 1.510000e+01 -3.020000e+01 6.000000e+00
      vertex 1.520000e+01 -3.020000e+01 6.000000e+00
    endloop
  endfacet
  facet normal 0.000000e+00 0.000000e+00 1.000000e+00
    outer loop
      vertex 1.510000e+01 3.020000e+01 6.000000e+00
      vertex 1.520000e+01 -3.020000e+01 6.000000e+00
      vertex 1.520000e+01 3.020000e+01 6.000000e+00
    endloop
  endfacet
  facet normal 0.000000e+00 1.000000e+00 0.000000e+00
    outer loop
      vertex -1.510000e+01 -3.020000e+01 2.400000e+01
      vertex 1.510000e+01 -3.020000e+01 6.000000e+00
      vertex -1.510000e+01 -3.020000e+01 6.000000e+00
    endloop
  endfacet
  facet normal 0.000000e+00 1.000000e+00 0.000000e+00
    outer loop
      vertex 1.510000e+01 -3.020000e+01 6.000000e+00
      vertex -1.510000e+01 -3.020000e+01 2.400000e+01
      vertex 1.510000e+01 -3.020000e+01 2.400000e+01
    endloop
  endfacet
  facet normal 0.000000e+00 1.000000e+00 0.000000e+00
    outer loop
      vertex 1.510000e+01 -3.020000e+01 2.400000e+01
      vertex 1.520000e+01 -3.020000e+01 6.000000e+00
      vertex 1.510000e+01 -3.020000e+01 6.000000e+00
    endloop
  endfacet
  facet normal 0.000000e+00 1.000000e+00 0.000000e+00
    outer loop
      vertex 1.520000e+01 -3.020000e+01 6.000000e+00
      vertex 1.510000e+01 -3.020000e+01 2.400000e+01
      vertex 1.520000e+01 -3.020000e+01 2.400000e+01
    endloop
  endfacet
  facet normal -1.000000e+00 0.000000e+00 0.000000e+00
    outer loop
      vertex 1.520000e+01 3.020000e+01 2.400000e+01
      vertex 1.520000e+01 -3.020000e+01 6.000000e+00
      vertex 1.520000e+01 -3.020000e+01 2.400000e+01
    endloop
  endfacet
  facet normal -1.000000e+00 0.000000e+00 0.000000e+00
    outer loop
      vertex 1.520000e+01 -3.020000e+01 6.000000e+00
      vertex 1.520000e+01 3.020000e+01 2.400000e+01
      vertex 1.520000e+01 3.020000e+01 6.000000e+00
    endloop
  endfacet
  facet normal -1.776357e-14 -1.000000e+00 -0.000000e+00
    outer loop
      vertex 1.520000e+01 3.020000e+01 2.400000e+01
      vertex 1.510000e+01 3.020000e+01 6.000000e+00
      vertex 1.520000e+01 3.020000e+01 6.000000e+00
    endloop
  endfacet
  facet normal -1.776357e-14 -1.000000e+00 -0.000000e+00
    outer loop
      vertex 1.510000e+01 3.020000e+01 6.000000e+00
      vertex 1.520000e+01 3.020000e+01 2.400000e+01
      vertex 1.510000e+01 3.020000e+01 2.400000e+01
    endloop
  endfacet
  facet normal -5.881976e-17 -1.000000e+00 -0.000000e+00
    outer loop
      vertex 1.510000e+01 3.020000e+01 2.400000e+01
      vertex -1.510000e+01 3.020000e+01 6.000000e+00
      vertex 1.510000e+01 3.020000e+01 6.000000e+00
    endloop
  endfacet
  facet normal -5.881976e-17 -1.000000e+00 -0.000000e+00
    outer loop
      vertex -1.510000e+01 3.020000e+01 6.000000e+00
      vertex 1.510000e+01 3.020000e+01 2.400000e+01
      vertex -1.510000e+01 3.020000e+01 2.400000e+01
    endloop
  endfacet
  facet normal -0.000000e+00 -1.000000e+00 -0.000000e+00
    outer loop
      vertex -1.510000e+01 3.020000e+01 2.400000e+01
      vertex -1.520000e+01 3.020000e+01 6.000000e+00
      vertex -1.510000e+01 3.020000e+01 6.000000e+00
    endloop
  endfacet
  facet normal -0.000000e+00 -1.000000e+00 -0.000000e+00
    outer loop
      vertex -1.520000e+01 3.020000e+01 6.000000e+00
      vertex -1.510000e+01 3.020000e+01 2.400000e+01
      vertex -1.520000e+01 3.020000e+01 2.400000e+01
    endloop
  endfacet
  facet normal 1.000000e+00 0.000000e+00 0.000000e+00
    outer loop
      vertex -1.520000e+01 3.020000e+01 6.000000e+00
      vertex -1.520000e+01 -3.020000e+01 2.400000e+01
      vertex -1.520000e+01 -3.020000e+01 6.000000e+00
    endloop
  endfacet
  facet normal 1.000000e+00 0.000000e+00 0.000000e+00
    outer loop
      vertex -1.520000e+01 -3.020000e+01 2.400000e+01
      vertex -1.520000e+01 3.020000e+01 6.000000e+00
      vertex -1.520000e+01 3.020000e+01 2.400000e+01
    endloop
  endfacet
  facet normal 0.000000e+00 1.000000e+00 0.000000e+00
    outer loop
      vertex -1.520000e+01 -3.020000e+01 2.400000e+01
      vertex -1.510000e+01 -3.020000e+01 6.000000e+00
      vertex -1.520000e+01 -3.020000e+01 6.000000e+00
    endloop
  endfacet
  facet normal 0.000000e+00 1.000000e+00 0.000000e+00
    outer loop
      vertex -1.510000e+01 -3.020000e+01 6.000000e+00
      vertex -1.520000e+01 -3.020000e+01 2.400000e+01
      vertex -1.510000e+01 -3.020000e+01 2.400000e+01
    endloop
  endfacet
endsolid Default
